#!OML:ASF H:\LiuWeirdWalks\Patient Classification 1\Patient 1\Session 1\male.ASF
:FULLY-SPECIFIED
:DEGREES
567
root 2.75819 18.026 -12.0968 -0.906671 -2.86334 0.603456
lowerback 5.50837 -0.790293 -5.35865
upperback -0.424163 -1.33484 2.20541
thorax -3.35978 -0.548342 5.42342
lowerneck -15.122 1.3221 6.10619
upperneck 22.562 1.2852 -4.15047
head 9.70576 0.642642 -2.31212
rclavicle 2.29845e-016 -4.77083e-015
rhumerus -41.9729 -15.0103 -70.8282
rradius 30.7586
rwrist -6.74638
rhand -17.1684 -3.77859
rfingers 7.12502
rthumb 9.07282 -33.5635
lclavicle 2.29845e-016 -4.77083e-015
lhumerus -30.5085 -8.53567 85.4314
lradius 35.7698
lwrist 11.7143
lhand -11.6902 -0.56501
lfingers 7.12502
lthumb 14.3555 28.9186
rfemur -28.1106 -8.4304 12.9492
rtibia 73.5627
rfoot -4.08759 -11.6101
rtoes -0.627684
lfemur -4.938 4.00906 -26.7707
ltibia 23.5257
lfoot -11.2701 10.6673
ltoes -6.49609
568
root 2.75964 18.0226 -12.0646 -0.970343 -2.84756 0.717939
lowerback 5.57628 -0.854164 -5.53076
upperback -0.400847 -1.43506 2.19798
thorax -3.35681 -0.595957 5.5229
lowerneck -15.1995 1.35295 6.15148
upperneck 22.5832 1.316 -4.16745
head 9.7303 0.658204 -2.32228
rclavicle 7.87063e-015 3.97569e-016
rhumerus -42.0732 -15.0553 -70.7794
rradius 30.6714
rwrist -6.6967
rhand -17.1637 -3.81809
rfingers 7.12502
rthumb 9.07741 -33.6028
lclavicle 7.87063e-015 3.97569e-016
lhumerus -30.1055 -8.53863 85.4152
lradius 35.6429
lwrist 11.6901
lhand -11.6557 -0.56118
lfingers 7.12502
lthumb 14.3888 28.9201
rfemur -28.7773 -8.40332 13.0258
rtibia 73.2426
rfoot -4.60246 -11.694
rtoes -1.10658
lfemur -4.72611 4.00623 -26.9093
ltibia 23.4601
lfoot -11.2786 10.7221
ltoes -6.59047
569
root 2.76103 18.0192 -12.0331 -1.01959 -2.85321 0.812849
lowerback 5.63599 -0.909835 -5.68265
upperback -0.379146 -1.52257 2.1965
thorax -3.35241 -0.63759 5.61603
lowerneck -15.2137 1.38589 6.20266
upperneck 22.5528 1.35136 -4.185
head 9.72492 0.676466 -2.33214
rclavicle 1.35298e-014 3.18055e-015
rhumerus -42.1665 -15.0921 -70.7377
rradius 30.5906
rwrist -6.65762
rhand -17.1622 -3.9044
rfingers 7.12502
rthumb 9.07888 -33.689
lclavicle 1.35298e-014 3.18055e-015
lhumerus -29.7088 -8.53149 85.3998
lradius 35.537
lwrist 11.6775
lhand -11.6206 -0.489721
lfingers 7.12502
lthumb 14.4226 28.9891
rfemur -29.4424 -8.34152 13.1323
rtibia 72.8601
rfoot -5.10048 -11.7743
rtoes -1.70181
lfemur -4.54118 4.00057 -27.0338
ltibia 23.4082
lfoot -11.2873 10.8151
ltoes -6.66251
570
root 2.76247 18.0155 -12.0021 -1.0571 -2.87357 0.88922
lowerback 5.69047 -0.957472 -5.80876
upperback -0.360411 -1.59742 2.19774
thorax -3.35004 -0.673229 5.69632
lowerneck -15.1819 1.40993 6.2525
upperneck 22.4836 1.37821 -4.20824
head 9.69662 0.690108 -2.3442
rclavicle -1.74744e-014 -1.23246e-014
rhumerus -42.2661 -15.1188 -70.7026
rradius 30.5215
rwrist -6.6144
rhand -17.143 -3.99937
rfingers 7.12502
rthumb 9.09734 -33.7832
lclavicle -1.74744e-014 -1.23246e-014
lhumerus -29.3258 -8.50956 85.3855
lradius 35.4519
lwrist 11.6535
lhand -11.5701 -0.399969
lfingers 7.12502
lthumb 14.4712 29.0754
rfemur -30.0987 -8.24879 13.2634
rtibia 72.4174
rfoot -5.60004 -11.8675
rtoes -2.34937
lfemur -4.37815 3.98597 -27.1468
ltibia 23.3687
lfoot -11.2912 10.9504
ltoes -6.7344
571
root 2.76325 18.0122 -11.9715 -1.08923 -2.86963 0.931888
lowerback 5.74626 -1.0096 -5.89846
upperback -0.340245 -1.67574 2.20451
thorax -3.34686 -0.711295 5.76201
lowerneck -15.1133 1.41097 6.28806
upperneck 22.3975 1.37709 -4.22573
head 9.65362 0.690367 -2.3551
rclavicle 2.47238e-015 9.14409e-015
rhumerus -42.3693 -15.1418 -70.6767
rradius 30.4639
rwrist -6.57774
rhand -17.0991 -4.08266
rfingers 7.12502
rthumb 9.1397 -33.8646
lclavicle 2.47238e-015 9.14409e-015
lhumerus -28.9396 -8.50287 85.3711
lradius 35.3751
lwrist 11.6621
lhand -11.542 -0.332448
lfingers 7.12502
lthumb 14.4983 29.141
rfemur -30.7196 -8.15663 13.4378
rtibia 71.912
rfoot -6.08202 -11.9913
rtoes -3.07885
lfemur -4.22399 3.93649 -27.2261
ltibia 23.3372
lfoot -11.2879 11.1124
ltoes -6.78911
572
root 2.76376 18.0091 -11.9409 -1.118 -2.84481 0.96186
lowerback 5.80026 -1.06402 -5.96781
upperback -0.312784 -1.7556 2.21089
thorax -3.33512 -0.751033 5.81565
lowerneck -15.0532 1.40009 6.30706
upperneck 22.3235 1.36104 -4.23426
head 9.61543 0.683306 -2.36214
rclavicle -1.69402e-014 3.97569e-016
rhumerus -42.4638 -15.1767 -70.653
rradius 30.4036
rwrist -6.52649
rhand -17.0435 -4.11625
rfingers 7.12502
rthumb 9.19336 -33.8958
lclavicle -1.69402e-014 3.97569e-016
lhumerus -28.5493 -8.49417 85.3556
lradius 35.3105
lwrist 11.6731
lhand -11.5266 -0.326781
lfingers 7.12502
lthumb 14.5131 29.1456
rfemur -31.3046 -8.06737 13.6259
rtibia 71.3492
rfoot -6.55212 -12.1498
rtoes -3.86249
lfemur -4.07396 3.86156 -27.296
ltibia 23.307
lfoot -11.2748 11.2936
ltoes -6.83503
573
root 2.76422 18.006 -11.9099 -1.1452 -2.81019 0.989007
lowerback 5.85501 -1.11933 -6.03274
upperback -0.28635 -1.83637 2.21918
thorax -3.32459 -0.791243 5.86893
lowerneck -15.0291 1.38789 6.31787
upperneck 22.28 1.34345 -4.24248
head 9.59461 0.674803 -2.36839
rclavicle 1.00138e-014 -2.38542e-015
rhumerus -42.5641 -15.198 -70.6286
rradius 30.3445
rwrist -6.46697
rhand -16.9783 -4.08585
rfingers 7.12502
rthumb 9.25629 -33.8627
lclavicle 1.00138e-014 -2.38542e-015
lhumerus -28.1663 -8.47778 85.3472
lradius 35.2507
lwrist 11.7054
lhand -11.5537 -0.413626
lfingers 7.12502
lthumb 14.487 29.0606
rfemur -31.8532 -7.97265 13.8135
rtibia 70.7316
rfoot -7.01137 -12.338
rtoes -4.66096
lfemur -3.92067 3.76018 -27.3695
ltibia 23.27
lfoot -11.2471 11.5083
ltoes -6.87403
574
root 2.76465 18.0032 -11.8787 -1.16993 -2.77142 1.01066
lowerback 5.90954 -1.17698 -6.09231
upperback -0.262891 -1.9199 2.2306
thorax -3.31647 -0.832747 5.9228
lowerneck -15.0443 1.37667 6.29994
upperneck 22.2683 1.32756 -4.22966
head 9.5922 0.666933 -2.36276
rclavicle -2.24627e-014 7.95139e-016
rhumerus -42.6746 -15.1626 -70.6256
rradius 30.3071
rwrist -6.45053
rhand -16.9155 -4.01653
rfingers 7.12502
rthumb 9.31691 -33.7906
lclavicle -2.24627e-014 7.95139e-016
lhumerus -27.7894 -8.43726 85.3391
lradius 35.1864
lwrist 11.6954
lhand -11.5603 -0.440749
lfingers 7.12502
lthumb 14.4807 29.034
rfemur -32.3695 -7.86458 14.0036
rtibia 70.064
rfoot -7.45067 -12.5534
rtoes -5.39148
lfemur -3.76375 3.64516 -27.4413
ltibia 23.2226
lfoot -11.211 11.7397
ltoes -6.89234
575
root 2.76534 18.0004 -11.8468 -1.19923 -2.74238 1.02629
lowerback 5.95469 -1.23448 -6.14198
upperback -0.236683 -2.00192 2.24317
thorax -3.30046 -0.874074 5.97174
lowerneck -15.0679 1.37892 6.28554
upperneck 22.2546 1.32881 -4.21563
head 9.59169 0.667389 -2.3551
rclavicle 9.93923e-017 -1.98785e-015
rhumerus -42.7814 -15.1041 -70.6354
rradius 30.2711
rwrist -6.45071
rhand -16.887 -3.94848
rfingers 7.12502
rthumb 9.34433 -33.7214
lclavicle 9.93923e-017 -1.98785e-015
lhumerus -27.4312 -8.37615 85.3314
lradius 35.1368
lwrist 11.6645
lhand -11.5688 -0.468939
lfingers 7.12502
lthumb 14.4725 29.0064
rfemur -32.8465 -7.73826 14.1949
rtibia 69.349
rfoot -7.86452 -12.7877
rtoes -6.01357
lfemur -3.58859 3.51931 -27.5123
ltibia 23.1583
lfoot -11.1718 11.9962
ltoes -6.90242
576
root 2.76621 17.9976 -11.8148 -1.22547 -2.72709 1.03142
lowerback 5.98953 -1.29218 -6.17887
upperback -0.211916 -2.08264 2.25989
thorax -3.28044 -0.915081 6.01735
lowerneck -15.124 1.3968 6.3036
upperneck 22.2254 1.35039 -4.23841
head 9.59354 0.675501 -2.36306
rclavicle 2.55438e-014 -3.18055e-015
rhumerus -42.8882 -15.0025 -70.6661
rradius 30.253
rwrist -6.47636
rhand -16.8786 -3.88928
rfingers 7.12502
rthumb 9.3525 -33.6618
lclavicle 2.55438e-014 -3.18055e-015
lhumerus -27.0888 -8.28772 85.3221
lradius 35.0969
lwrist 11.5874
lhand -11.5456 -0.46127
lfingers 7.12502
lthumb 14.4948 29.0124
rfemur -33.2962 -7.59139 14.3932
rtibia 68.5906
rfoot -8.25956 -13.0332
rtoes -6.47046
lfemur -3.40504 3.38783 -27.5749
ltibia 23.0783
lfoot -11.1358 12.2648
ltoes -6.90214
577
root 2.76718 17.9952 -11.7824 -1.24844 -2.71925 1.03368
lowerback 6.01012 -1.34988 -6.21253
upperback -0.183612 -2.16213 2.27983
thorax -3.24871 -0.956106 6.06377
lowerneck -15.1523 1.41001 6.32727
upperneck 22.2015 1.36738 -4.26787
head 9.59183 0.681481 -2.37492
rclavicle 6.54747e-015 -9.14409e-015
rhumerus -42.9823 -14.8798 -70.7103
rradius 30.2461
rwrist -6.50045
rhand -16.8931 -3.8708
rfingers 7.12502
rthumb 9.33847 -33.644
lclavicle 6.54747e-015 -9.14409e-015
lhumerus -26.7454 -8.18918 85.3144
lradius 35.061
lwrist 11.4644
lhand -11.4904 -0.392031
lfingers 7.12502
lthumb 14.5481 29.0778
rfemur -33.7192 -7.43695 14.5909
rtibia 67.7904
rfoot -8.61227 -13.2774
rtoes -6.82125
lfemur -3.21084 3.25831 -27.6329
ltibia 22.9786
lfoot -11.1106 12.5235
ltoes -6.87741
578
root 2.76805 17.9929 -11.7502 -1.26295 -2.71484 1.03963
lowerback 6.02785 -1.40607 -6.24877
upperback -0.161613 -2.23974 2.2998
thorax -3.22198 -0.995802 6.11157
lowerneck -15.138 1.42286 6.37127
upperneck 22.1348 1.38442 -4.31302
head 9.56731 0.687473 -2.39497
rclavicle -3.05756e-014 -1.39149e-014
rhumerus -43.0751 -14.7602 -70.7527
rradius 30.2423
rwrist -6.50252
rhand -16.9081 -3.87638
rfingers 7.12502
rthumb 9.32404 -33.6502
lclavicle -3.05756e-014 -1.39149e-014
lhumerus -26.4151 -8.10101 85.3144
lradius 35.0343
lwrist 11.329
lhand -11.4112 -0.299929
lfingers 7.12502
lthumb 14.6244 29.1644
rfemur -34.1249 -7.27829 14.7813
rtibia 66.9545
rfoot -8.93814 -13.5217
rtoes -7.08523
lfemur -3.01378 3.14015 -27.6904
ltibia 22.8572
lfoot -11.0932 12.7535
ltoes -6.86059
